<svg version="1.1" id="Layer_1" xmlns="http://www.w3.org/2000/svg" xmlns:xlink="http://www.w3.org/1999/xlink" x="0px" y="0px"
	 width="100%" viewBox="0 0 572 386" enable-background="new 0 0 572 386" xml:space="preserve">
<path fill="#FFFEFE" opacity="1.000000" stroke="none" 
	d="
M360.000000,387.000000 
	C240.000000,387.000000 120.500000,387.000000 1.000000,387.000000 
	C1.000000,258.333344 1.000000,129.666672 1.000000,1.000000 
	C191.666672,1.000000 382.333344,1.000000 573.000000,1.000000 
	C573.000000,129.666672 573.000000,258.333344 573.000000,387.000000 
	C502.166656,387.000000 431.333344,387.000000 360.000000,387.000000 
M455.513458,301.999939 
	C484.405151,279.469452 513.323975,256.973328 542.111877,234.311050 
	C543.613892,233.128662 544.776367,230.538010 544.791565,228.592804 
	C544.975220,205.096405 544.912903,181.598099 544.914551,158.100281 
	C544.914673,156.840500 544.914612,155.580719 544.914612,153.169937 
	C457.111908,221.775009 370.159698,289.715546 282.170868,358.466064 
	C315.879059,358.466064 348.031586,358.504944 380.183411,358.370636 
	C382.135376,358.362488 384.403595,357.394714 385.982056,356.172607 
	C409.026031,338.331085 431.977539,320.370056 455.513458,301.999939 
M212.392822,44.178066 
	C207.400055,45.290989 202.143478,45.746655 197.458740,47.627007 
	C173.060150,57.420048 155.762131,74.428436 146.419113,99.220901 
	C145.894409,100.613258 145.127625,101.914391 144.473511,103.257980 
	C148.642807,69.735947 172.306915,53.058311 199.917572,39.542297 
	C198.616638,37.795258 197.637436,36.253342 196.439331,34.906086 
	C183.019577,19.815405 159.339600,19.895864 145.040527,35.068832 
	C118.678963,63.041496 126.165764,108.002449 149.034576,130.145416 
	C155.158752,136.075226 162.844162,139.030838 171.285507,138.686844 
	C177.710159,138.425034 184.254425,137.544342 190.450958,135.857254 
	C216.609940,128.735046 238.021042,114.550064 253.879623,91.918739 
	C243.860428,85.858047 233.756851,84.167191 223.672745,90.623672 
	C217.972839,94.273102 212.773026,98.764671 207.622849,103.196381 
	C200.944580,108.942970 194.791031,115.319878 187.934509,120.832024 
	C182.884705,124.891701 177.070221,128.000214 173.757660,130.137878 
	C185.019577,118.254112 197.501114,104.383331 210.844009,91.397583 
	C215.290024,87.070595 221.676178,84.288689 227.649292,82.084953 
	C236.474167,78.829086 245.276245,81.146118 254.160049,85.092812 
	C253.909439,82.406075 253.921341,80.232964 253.479431,78.156433 
	C249.560715,59.742332 234.463409,47.032280 212.392822,44.178066 
M65.795372,114.582527 
	C59.986069,114.394661 54.092686,113.487404 48.383324,114.154671 
	C31.678572,116.107002 18.767750,123.903458 12.582855,140.323959 
	C8.213354,151.924683 11.453620,166.001511 19.869492,172.648727 
	C21.756306,170.621704 23.566452,168.422516 25.632551,166.498108 
	C40.926205,152.253311 57.594563,140.298553 78.726379,136.499954 
	C86.807579,135.047287 94.980042,135.071884 102.661003,138.764420 
	C101.484512,139.210419 100.336067,139.318542 99.187599,139.318787 
	C74.610588,139.323944 53.356659,147.669464 35.360062,164.461212 
	C23.809437,175.238556 16.630302,187.775391 18.734371,204.166656 
	C20.965553,221.548126 31.965149,232.119797 47.059498,240.051468 
	C47.059498,239.077118 47.144039,238.470779 47.047249,237.894897 
	C43.756283,218.314194 52.675735,205.273758 69.274940,196.335327 
	C78.937439,191.132217 88.584389,185.900009 98.264748,180.730316 
	C103.320061,178.030579 108.432495,175.437805 113.519135,172.796722 
	C113.853371,173.290985 114.187614,173.785248 114.521851,174.279495 
	C107.158470,179.771133 99.998199,185.565262 92.381538,190.679688 
	C82.308510,197.443558 71.605202,203.286255 61.681004,210.249222 
	C52.448082,216.727203 49.801701,227.854523 54.040211,239.490021 
	C58.809326,237.736359 63.761803,236.349777 68.329727,234.160721 
	C88.644997,224.425217 103.147797,208.599838 115.414963,190.028519 
	C128.491486,170.231918 121.118050,147.144012 108.542274,135.389221 
	C96.662598,124.285080 82.656479,117.506172 65.795372,114.582527 
M125.370567,250.113235 
	C126.842148,255.047897 128.889542,259.893311 129.670807,264.934937 
	C131.556870,277.106079 137.734100,284.156006 150.534485,284.360168 
	C150.694077,284.362701 150.849030,284.471558 151.011505,284.502319 
	C164.182877,286.995026 177.354782,289.484863 191.085556,292.080566 
	C176.066422,250.565674 152.420944,214.006836 135.280640,173.859955 
	C129.789993,181.550751 124.653069,188.484970 119.803452,195.614624 
	C115.223602,202.347672 114.470863,209.829361 116.536751,217.602432 
	C119.351807,228.194290 122.265030,238.760071 125.370567,250.113235 
M185.461731,143.937637 
	C179.407837,145.770660 173.353943,147.603683 167.331146,149.427292 
	C183.044846,164.941788 198.372574,179.966263 213.575394,195.116058 
	C228.707474,210.195343 243.716721,225.397598 261.331085,238.734283 
	C263.788239,222.900421 265.904053,207.955704 268.501617,193.095184 
	C269.749237,185.957504 267.760895,180.816544 261.691559,176.900909 
	C246.870209,167.338898 231.944702,157.917145 217.449753,147.877792 
	C207.527618,141.005630 197.368805,139.762482 185.461731,143.937637 
M270.499939,40.272202 
	C349.963287,40.272282 429.426636,40.268635 508.889984,40.275284 
	C526.816895,40.276783 536.645813,50.107464 536.665588,68.087425 
	C536.692200,92.242958 536.668274,116.398544 536.684204,140.554108 
	C536.685364,142.270126 536.835144,143.986069 536.918274,145.755402 
	C543.364502,143.184357 545.274902,139.008469 545.134644,132.438156 
	C544.672607,110.791306 544.971680,89.128433 544.957336,67.471733 
	C544.942932,45.621906 531.292908,32.017868 509.382446,32.016647 
	C409.928162,32.011112 310.473907,32.012615 211.019623,32.011585 
	C209.264526,32.011570 207.509430,32.011589 205.754333,32.011589 
	C205.579453,32.552979 205.404572,33.094364 205.229691,33.635754 
	C207.029388,34.418190 208.764069,35.585972 210.642303,35.902897 
	C214.560394,36.564003 218.901459,35.914101 222.447998,37.343246 
	C230.975800,40.779667 239.728271,40.235893 248.509537,40.267155 
	C255.506226,40.292065 262.503082,40.272236 270.499939,40.272202 
M38.806782,257.522888 
	C38.806644,255.523422 38.808094,253.523972 38.806087,251.524506 
	C38.798512,243.981201 38.279160,243.278091 30.210030,240.243576 
	C30.210030,241.298416 30.209944,242.246521 30.210039,243.194641 
	C30.212791,270.356689 30.145262,297.518982 30.241550,324.680695 
	C30.312944,344.819885 44.464024,358.892944 64.633110,358.906982 
	C129.788696,358.952332 194.944366,358.890717 260.099823,358.986450 
	C266.580902,358.995972 269.409119,354.192688 273.440765,350.852295 
	C203.841370,350.393219 134.529037,350.400452 65.216721,350.387939 
	C48.732502,350.384949 38.858593,340.522003 38.827324,324.004944 
	C38.785995,302.175415 38.810516,280.345734 38.806782,257.522888 
M536.594727,322.460846 
	C536.456604,341.040894 527.105713,350.395050 508.638916,350.399078 
	C476.994110,350.405945 445.346252,350.637665 413.706818,350.225952 
	C406.278015,350.129272 401.946136,353.897156 396.484711,358.931946 
	C398.493683,358.931946 399.435486,358.932098 400.377319,358.931915 
	C437.018463,358.924469 473.659637,358.950928 510.300690,358.896362 
	C531.063049,358.865448 544.941711,344.875031 544.972107,324.019226 
	C545.008972,298.703430 544.984497,273.387573 544.986511,248.071762 
	C544.986633,246.674210 544.986572,245.276657 544.986572,243.664978 
	C538.441956,246.546844 536.258728,250.723358 536.417603,257.521027 
	C536.915588,278.827942 536.598267,300.153931 536.594727,322.460846 
M46.275467,36.698025 
	C35.509644,43.473400 30.389519,53.359756 30.249426,65.941498 
	C30.180820,72.102974 30.235561,78.265839 30.235252,84.428070 
	C30.234831,92.843018 30.235147,101.257957 30.235147,109.789688 
	C38.779381,107.702599 38.779610,107.702599 38.779877,99.909691 
	C38.780247,89.084145 39.239712,78.234421 38.671616,67.438774 
	C37.840099,51.637287 49.559460,39.799450 66.068588,40.211712 
	C85.043098,40.685543 104.050438,39.937344 123.018585,40.524853 
	C129.895737,40.737862 133.222763,37.911972 135.793503,31.996227 
	C111.999725,31.996227 88.550476,31.708862 65.117096,32.191784 
	C59.013405,32.317570 52.959217,34.845417 46.275467,36.698025 
M139.239166,127.742897 
	C135.025177,129.839249 130.419891,131.401978 126.679810,134.144592 
	C119.215561,139.618179 119.138962,142.369858 124.880768,149.670929 
	C129.307663,155.300003 131.912338,155.813202 137.889389,151.755356 
	C140.901077,149.710724 144.084457,147.602554 146.303940,144.816986 
	C147.824478,142.908630 149.137665,139.081604 148.217026,137.347305 
	C146.310135,133.755081 142.852509,130.986053 139.239166,127.742897 
z"/>
<path fill="#FF1D03" opacity="1.000000" stroke="none" 
	d="
M455.232269,302.218719 
	C431.977539,320.370056 409.026031,338.331085 385.982056,356.172607 
	C384.403595,357.394714 382.135376,358.362488 380.183411,358.370636 
	C348.031586,358.504944 315.879059,358.466064 282.170868,358.466064 
	C370.159698,289.715546 457.111908,221.775009 544.914612,153.169937 
	C544.914612,155.580719 544.914673,156.840500 544.914551,158.100281 
	C544.912903,181.598099 544.975220,205.096405 544.791565,228.592804 
	C544.776367,230.538010 543.613892,233.128662 542.111877,234.311050 
	C513.323975,256.973328 484.405151,279.469452 455.232269,302.218719 
z"/>
<path fill="#FF1E04" opacity="1.000000" stroke="none" 
	d="
M212.830902,44.190361 
	C234.463409,47.032280 249.560715,59.742332 253.479431,78.156433 
	C253.921341,80.232964 253.909439,82.406075 254.160049,85.092812 
	C245.276245,81.146118 236.474167,78.829086 227.649292,82.084953 
	C221.676178,84.288689 215.290024,87.070595 210.844009,91.397583 
	C197.501114,104.383331 185.019577,118.254112 173.757660,130.137878 
	C177.070221,128.000214 182.884705,124.891701 187.934509,120.832024 
	C194.791031,115.319878 200.944580,108.942970 207.622849,103.196381 
	C212.773026,98.764671 217.972839,94.273102 223.672745,90.623672 
	C233.756851,84.167191 243.860428,85.858047 253.879623,91.918739 
	C238.021042,114.550064 216.609940,128.735046 190.450958,135.857254 
	C184.254425,137.544342 177.710159,138.425034 171.285507,138.686844 
	C162.844162,139.030838 155.158752,136.075226 149.034576,130.145416 
	C126.165764,108.002449 118.678963,63.041496 145.040527,35.068832 
	C159.339600,19.895864 183.019577,19.815405 196.439331,34.906086 
	C197.637436,36.253342 198.616638,37.795258 199.917572,39.542297 
	C172.306915,53.058311 148.642807,69.735947 144.473511,103.257980 
	C145.127625,101.914391 145.894409,100.613258 146.419113,99.220901 
	C155.762131,74.428436 173.060150,57.420048 197.458740,47.627007 
	C202.143478,45.746655 207.400055,45.290989 212.830902,44.190361 
z"/>
<path fill="#FF1E04" opacity="1.000000" stroke="none" 
	d="
M66.228775,114.670853 
	C82.656479,117.506172 96.662598,124.285080 108.542274,135.389221 
	C121.118050,147.144012 128.491486,170.231918 115.414963,190.028519 
	C103.147797,208.599838 88.644997,224.425217 68.329727,234.160721 
	C63.761803,236.349777 58.809326,237.736359 54.040211,239.490021 
	C49.801701,227.854523 52.448082,216.727203 61.681004,210.249222 
	C71.605202,203.286255 82.308510,197.443558 92.381538,190.679688 
	C99.998199,185.565262 107.158470,179.771133 114.521851,174.279495 
	C114.187614,173.785248 113.853371,173.290985 113.519135,172.796722 
	C108.432495,175.437805 103.320061,178.030579 98.264748,180.730316 
	C88.584389,185.900009 78.937439,191.132217 69.274940,196.335327 
	C52.675735,205.273758 43.756283,218.314194 47.047249,237.894897 
	C47.144039,238.470779 47.059498,239.077118 47.059498,240.051468 
	C31.965149,232.119797 20.965553,221.548126 18.734371,204.166656 
	C16.630302,187.775391 23.809437,175.238556 35.360062,164.461212 
	C53.356659,147.669464 74.610588,139.323944 99.187599,139.318787 
	C100.336067,139.318542 101.484512,139.210419 102.661003,138.764420 
	C94.980042,135.071884 86.807579,135.047287 78.726379,136.499954 
	C57.594563,140.298553 40.926205,152.253311 25.632551,166.498108 
	C23.566452,168.422516 21.756306,170.621704 19.869492,172.648727 
	C11.453620,166.001511 8.213354,151.924683 12.582855,140.323959 
	C18.767750,123.903458 31.678572,116.107002 48.383324,114.154671 
	C54.092686,113.487404 59.986069,114.394661 66.228775,114.670853 
z"/>
<path fill="#FF1E04" opacity="1.000000" stroke="none" 
	d="
M125.253357,249.725128 
	C122.265030,238.760071 119.351807,228.194290 116.536751,217.602432 
	C114.470863,209.829361 115.223602,202.347672 119.803452,195.614624 
	C124.653069,188.484970 129.789993,181.550751 135.280640,173.859955 
	C152.420944,214.006836 176.066422,250.565674 191.085556,292.080566 
	C177.354782,289.484863 164.182877,286.995026 151.011505,284.502319 
	C150.849030,284.471558 150.694077,284.362701 150.534485,284.360168 
	C137.734100,284.156006 131.556870,277.106079 129.670807,264.934937 
	C128.889542,259.893311 126.842148,255.047897 125.253357,249.725128 
z"/>
<path fill="#FF1E04" opacity="1.000000" stroke="none" 
	d="
M185.863235,143.850647 
	C197.368805,139.762482 207.527618,141.005630 217.449753,147.877792 
	C231.944702,157.917145 246.870209,167.338898 261.691559,176.900909 
	C267.760895,180.816544 269.749237,185.957504 268.501617,193.095184 
	C265.904053,207.955704 263.788239,222.900421 261.331085,238.734283 
	C243.716721,225.397598 228.707474,210.195343 213.575394,195.116058 
	C198.372574,179.966263 183.044846,164.941788 167.331146,149.427292 
	C173.353943,147.603683 179.407837,145.770660 185.863235,143.850647 
z"/>
<path fill="#FF2805" opacity="1.000000" stroke="none" 
	d="
M269.999908,40.272232 
	C262.503082,40.272236 255.506226,40.292065 248.509537,40.267155 
	C239.728271,40.235893 230.975800,40.779667 222.447998,37.343246 
	C218.901459,35.914101 214.560394,36.564003 210.642303,35.902897 
	C208.764069,35.585972 207.029388,34.418190 205.229691,33.635754 
	C205.404572,33.094364 205.579453,32.552979 205.754333,32.011589 
	C207.509430,32.011589 209.264526,32.011570 211.019623,32.011585 
	C310.473907,32.012615 409.928162,32.011112 509.382446,32.016647 
	C531.292908,32.017868 544.942932,45.621906 544.957336,67.471733 
	C544.971680,89.128433 544.672607,110.791306 545.134644,132.438156 
	C545.274902,139.008469 543.364502,143.184357 536.918274,145.755402 
	C536.835144,143.986069 536.685364,142.270126 536.684204,140.554108 
	C536.668274,116.398544 536.692200,92.242958 536.665588,68.087425 
	C536.645813,50.107464 526.816895,40.276783 508.889984,40.275284 
	C429.426636,40.268635 349.963287,40.272282 269.999908,40.272232 
z"/>
<path fill="#FF3514" opacity="1.000000" stroke="none" 
	d="
M38.806755,258.019501 
	C38.810516,280.345734 38.785995,302.175415 38.827324,324.004944 
	C38.858593,340.522003 48.732502,350.384949 65.216721,350.387939 
	C134.529037,350.400452 203.841370,350.393219 273.440765,350.852295 
	C269.409119,354.192688 266.580902,358.995972 260.099823,358.986450 
	C194.944366,358.890717 129.788696,358.952332 64.633110,358.906982 
	C44.464024,358.892944 30.312944,344.819885 30.241550,324.680695 
	C30.145262,297.518982 30.212791,270.356689 30.210039,243.194641 
	C30.209944,242.246521 30.210030,241.298416 30.210030,240.243576 
	C38.279160,243.278091 38.798512,243.981201 38.806087,251.524506 
	C38.808094,253.523972 38.806644,255.523422 38.806755,258.019501 
z"/>
<path fill="#FF310E" opacity="1.000000" stroke="none" 
	d="
M536.595703,321.966675 
	C536.598267,300.153931 536.915588,278.827942 536.417603,257.521027 
	C536.258728,250.723358 538.441956,246.546844 544.986572,243.664978 
	C544.986572,245.276657 544.986633,246.674210 544.986511,248.071762 
	C544.984497,273.387573 545.008972,298.703430 544.972107,324.019226 
	C544.941711,344.875031 531.063049,358.865448 510.300690,358.896362 
	C473.659637,358.950928 437.018463,358.924469 400.377319,358.931915 
	C399.435486,358.932098 398.493683,358.931946 396.484711,358.931946 
	C401.946136,353.897156 406.278015,350.129272 413.706818,350.225952 
	C445.346252,350.637665 476.994110,350.405945 508.638916,350.399078 
	C527.105713,350.395050 536.456604,341.040894 536.595703,321.966675 
z"/>
<path fill="#FF2E0B" opacity="1.000000" stroke="none" 
	d="
M46.578880,36.484016 
	C52.959217,34.845417 59.013405,32.317570 65.117096,32.191784 
	C88.550476,31.708862 111.999725,31.996227 135.793503,31.996227 
	C133.222763,37.911972 129.895737,40.737862 123.018585,40.524853 
	C104.050438,39.937344 85.043098,40.685543 66.068588,40.211712 
	C49.559460,39.799450 37.840099,51.637287 38.671616,67.438774 
	C39.239712,78.234421 38.780247,89.084145 38.779877,99.909691 
	C38.779610,107.702599 38.779381,107.702599 30.235147,109.789688 
	C30.235147,101.257957 30.234831,92.843018 30.235252,84.428070 
	C30.235561,78.265839 30.180820,72.102974 30.249426,65.941498 
	C30.389519,53.359756 35.509644,43.473400 46.578880,36.484016 
z"/>
<path fill="#FF2007" opacity="1.000000" stroke="none" 
	d="
M139.635864,127.810715 
	C142.852509,130.986053 146.310135,133.755081 148.217026,137.347305 
	C149.137665,139.081604 147.824478,142.908630 146.303940,144.816986 
	C144.084457,147.602554 140.901077,149.710724 137.889389,151.755356 
	C131.912338,155.813202 129.307663,155.300003 124.880768,149.670929 
	C119.138962,142.369858 119.215561,139.618179 126.679810,134.144592 
	C130.419891,131.401978 135.025177,129.839249 139.635864,127.810715 
z"/>
</svg>